<svg width="100" height="100" xmlns="http://www.w3.org/2000/svg" xmlns:svg="http://www.w3.org/2000/svg">
    <!-- Created with SVG-edit - http://svg-edit.googlecode.com/ -->

    <g>
        <title>Layer 1</title>
        <polyline  points="0 0,100 0" style="fill:none;stroke:rgba(137, 137, 137,0.6);stroke-width:2"/>
        <polyline  points="0 10,100 10" style="fill:none;stroke:rgba(137, 137, 137,0.6);stroke-width:1"/>
        <polyline  points="0 20,100 20" style="fill:none;stroke:rgba(137, 137, 137,0.6);stroke-width:1"/>
        <polyline  points="0 30,100 30" style="fill:none;stroke:rgba(137, 137, 137,0.6);stroke-width:1"/>
        <polyline  points="0 40,100 40" style="fill:none;stroke:rgba(137, 137, 137,0.6);stroke-width:1"/>
        <polyline  points="0 50,100 50" style="fill:none;stroke:rgba(137, 137, 137,0.6);stroke-width:2"/>
        <polyline  points="0 60,100 60" style="fill:none;stroke:rgba(137, 137, 137,0.6);stroke-width:1"/>
        <polyline  points="0 70,100 70" style="fill:none;stroke:rgba(137, 137, 137,0.6);stroke-width:1"/>
        <polyline  points="0 80,100 80" style="fill:none;stroke:rgba(137, 137, 137,0.6);stroke-width:1"/>
        <polyline  points="0 90,100 90" style="fill:none;stroke:rgba(137, 137, 137,0.6);stroke-width:1"/>
        <polyline  points="0 100,100 100" style="fill:none;stroke:rgba(137, 137, 137,0.6);stroke-width:1"/>

        <polyline  points="0 0,0 100" style="fill:none;stroke:rgba(137, 137, 137,0.6);stroke-width:2"/>
        <polyline  points="10 0,10 100" style="fill:none;stroke:rgba(137, 137, 137,0.6);stroke-width:1"/>
        <polyline  points="20 0,20 100" style="fill:none;stroke:rgba(137, 137, 137,0.6);stroke-width:1"/>
        <polyline  points="30 0,30 100" style="fill:none;stroke:rgba(137, 137, 137,0.6);stroke-width:1"/>
        <polyline  points="40 0,40 100" style="fill:none;stroke:rgba(137, 137, 137,0.6);stroke-width:1"/>
        <polyline  points="50 0,50 100" style="fill:none;stroke:rgba(137, 137, 137,0.6);stroke-width:2"/>
        <polyline  points="60 0,60 100" style="fill:none;stroke:rgba(137, 137, 137,0.6);stroke-width:1"/>
        <polyline  points="70 0,70 100" style="fill:none;stroke:rgba(137, 137, 137,0.6);stroke-width:1"/>
        <polyline  points="80 0,80 100" style="fill:none;stroke:rgba(137, 137, 137,0.6);stroke-width:1"/>
        <polyline  points="90 0,90 100" style="fill:none;stroke:rgba(137, 137, 137,0.6);stroke-width:1"/>
        <polyline  points="100 0,100 100" style="fill:none;stroke:rgba(137, 137, 137,0.6);stroke-width:1"/>

    </g>
</svg>

